<?xml version="1.0"?>
<svg version="1.1" xmlns="http://www.w3.org/2000/svg" width="400" height="66" style=""><path fill="#" d="M16.3623046875,35.52685546875l0-1.69189453125l0-1.73583984375q0.02197265625-1.7578125,0.142822265625-3.372802734375t0.340576171875-2.691650390625q0.1318359375-0.59326171875,0.791015625-0.72509765625t1.142578125-0.1318359375q0.90087890625,0,1.329345703125,0.2197265625t0.560302734375,0.626220703125t0.10986328125,0.966796875t-0.02197265625,1.285400390625q0,1.03271484375-0.0439453125,2.87841796875t-0.06591796875,4.0869140625l0,1.12060546875q0,1.69189453125,0.0439453125,3.49365234375q0.06591796875,2.4169921875,0.252685546875,4.625244140625t0.516357421875,3.97705078125t0.9228515625,2.713623046875q0.94482421875-0.85693359375,1.8896484375-2.406005859375t1.8017578125-3.482666015625t1.636962890625-4.075927734375t1.417236328125-4.185791015625t1.087646484375-3.84521484375t0.670166015625-3.05419921875q0.3515625-1.8017578125,0.472412109375-3.66943359375t0.120849609375-4.15283203125q0.68115234375-0.81298828125,1.0546875-1.021728515625t1.1865234375-0.208740234375q0.3955078125,0,0.802001953125,0.06591796875t0.780029296875,0.3076171875l0.3076171875,0.4833984375l0,0.54931640625q0,3.9990234375-0.384521484375,8.118896484375t-0.81298828125,8.28369140625t-0.81298828125,8.349609375t-0.384521484375,8.316650390625q0,0.63720703125,0.054931640625,1.351318359375t0.230712890625,1.351318359375l-0.087890625,0.263671875q-0.3076171875,0.50537109375-1.0107421875,0.63720703125t-1.20849609375,0.1318359375q-1.07666015625,0-1.614990234375-0.318603515625t-0.714111328125-0.87890625t-0.15380859375-1.29638671875t0.02197265625-1.593017578125q0-2.96630859375,0.263671875-6.031494140625t0.63720703125-6.031494140625q-0.3515625,1.03271484375-0.8349609375,2.493896484375t-1.131591796875,2.92236328125t-1.505126953125,2.6806640625t-1.8896484375,1.746826171875l0.0439453125-0.0439453125l-0.17578125,0.087890625l0.0439453125,0q-0.63720703125,0.3515625-1.175537109375,0.472412109375t-1.263427734375,0.120849609375q-1.4501953125,0-2.406005859375-0.85693359375t-1.549072265625-2.208251953125t-0.87890625-3.0322265625t-0.406494140625-3.372802734375t-0.120849609375-3.218994140625l0-2.515869140625q0-1.20849609375-0.02197265625-2.87841796875z M24.1845703125,53.01708984375q0.0439453125,0,0.0439453125-0.0439453125l0.0439453125,0q-0.0439453125,0.0439453125-0.087890625,0.0439453125z M40.107495117188,39.35009765625q0-1.03271484375,0.406494140625-1.527099609375t1.483154296875-0.494384765625q0.63720703125,0,1.197509765625,0.263671875t0.560302734375,1.12060546875q0.087890625,1.25244140625,0.087890625,2.625732421875t0.24169921875,2.603759765625q0.54931640625-0.90087890625,1.241455078125-1.8017578125t1.527099609375-1.60400390625t1.82373046875-1.131591796875t2.1533203125-0.428466796875q1.58203125,0,2.6806640625,0.6591796875t1.812744140625,1.7138671875t1.03271484375,2.384033203125t0.318603515625,2.669677734375q0,2.0654296875-0.626220703125,3.372802734375t-1.658935546875,2.054443359375t-2.340087890625,1.0107421875t-2.625732421875,0.263671875q-1.16455078125,0-2.17529296875-0.450439453125t-1.40625-1.702880859375q0-0.3515625,0.516357421875-0.439453125t0.736083984375-0.087890625q0.72509765625,0,1.07666015625,0.3955078125q0.263671875,0.3076171875,0.582275390625,0.626220703125t0.670166015625,0.318603515625q0.68115234375,0,1.42822265625-0.384521484375t1.373291015625-1.0107421875t1.0546875-1.483154296875t0.428466796875-1.7578125q0-0.76904296875-0.1318359375-1.91162109375t-0.450439453125-2.197265625t-0.87890625-1.82373046875t-1.417236328125-0.76904296875q-1.29638671875,0-2.340087890625,1.1865234375t-1.73583984375,2.8564453125t-1.07666015625,3.4716796875t-0.384521484375,3.01025390625t0.15380859375,3.05419921875t0.318603515625,3.834228515625t0.318603515625,3.834228515625t0.15380859375,3.05419921875q0,0.3076171875-0.252685546875,0.494384765625t-0.604248046875,0.296630859375t-0.714111328125,0.1318359375t-0.538330078125,0.02197265625q-0.59326171875,0-1.241455078125-0.1318359375t-0.889892578125-0.81298828125q-0.3076171875-1.07666015625-0.5712890625-3.065185546875t-0.472412109375-4.39453125t-0.362548828125-5.0537109375t-0.263671875-5.108642578125t-0.164794921875-4.50439453125t-0.054931640625-3.251953125z M60.271142578125,33.3515625q0-0.3076171875,0.6591796875-0.52734375t1.494140625-0.362548828125t1.614990234375-0.208740234375t1.065673828125-0.10986328125q0-0.59326171875,0.0439453125-1.197509765625t0.24169921875-1.07666015625t0.626220703125-0.758056640625t1.197509765625-0.28564453125q0.63720703125,0,0.966796875,0.15380859375t0.703125,0.63720703125q0.087890625,0.263671875,0.087890625,0.50537109375l0,0.736083984375t-0.0439453125,0.758056640625q0.81298828125-0.087890625,1.614990234375-0.208740234375t1.614990234375-0.120849609375q0.59326171875,0,0.81298828125,0.02197265625t0.439453125,0.52734375q0.17578125,0.50537109375-0.428466796875,0.76904296875t-1.4501953125,0.3955078125t-1.680908203125,0.19775390625t-1.0107421875,0.06591796875q-0.263671875,3.779296875-0.538330078125,7.49267578125t-0.274658203125,7.53662109375q0,1.7138671875,0.10986328125,3.53759765625t0.615234375,3.44970703125q0.1318359375,0.50537109375,0.439453125,0.94482421875t0.3076171875,0.94482421875q0,0.3076171875-0.24169921875,0.4833984375t-0.582275390625,0.296630859375t-0.68115234375,0.142822265625t-0.560302734375,0.02197265625q-1.38427734375,0-2.109375-1.03271484375t-1.043701171875-2.471923828125t-0.340576171875-2.955322265625t-0.02197265625-2.4609375q0-1.93359375,0.076904296875-3.955078125t0.186767578125-3.9990234375t0.3076171875-3.8671875t0.46142578125-3.515625q-0.76904296875,0.087890625-1.505126953125,0.19775390625t-1.505126953125,0.10986328125q-0.17578125,0-0.472412109375-0.02197265625t-0.560302734375-0.10986328125t-0.450439453125-0.24169921875t-0.186767578125-0.439453125z M76.633520507813,47.7216796875q0-1.25244140625,0.318603515625-2.581787109375t1.0107421875-2.39501953125t1.746826171875-1.73583984375t2.548828125-0.670166015625q1.12060546875,0,2.362060546875,0.384521484375t2.274169921875,1.0986328125t1.680908203125,1.746826171875t0.648193359375,2.30712890625q0,1.5380859375-0.560302734375,2.92236328125t-1.571044921875,2.471923828125t-2.362060546875,1.7138671875t-2.933349609375,0.626220703125q-1.29638671875,0-2.26318359375-0.472412109375t-1.614990234375-1.263427734375t-0.966796875-1.86767578125t-0.318603515625-2.28515625z M79.863500976563,47.677734375q0,0.3955078125,0.120849609375,1.16455078125t0.362548828125,1.505126953125t0.626220703125,1.2744140625t0.933837890625,0.494384765625q1.16455078125-0.1318359375,1.922607421875-0.758056640625t1.23046875-1.527099609375t0.6591796875-1.95556640625t0.186767578125-1.99951171875q0-1.20849609375-0.472412109375-2.021484375t-1.549072265625-1.318359375q0,0.0439453125,0.0439453125,0.0439453125t0.0439453125-0.0439453125l-0.54931640625-0.1318359375q-0.2197265625-0.087890625-0.538330078125-0.19775390625t-0.626220703125-0.4833984375q-0.85693359375,0.3076171875-1.329345703125,0.791015625t-0.714111328125,1.175537109375t-0.296630859375,1.658935546875t-0.054931640625,2.3291015625z M93.32548828125,49.06201171875q0-0.81298828125,0.032958984375-2.384033203125t0.230712890625-3.197021484375t0.648193359375-2.9443359375t1.351318359375-1.69189453125q0.2197265625-0.087890625,0.714111328125-0.15380859375t0.98876953125-0.0439453125t0.87890625,0.17578125t0.384521484375,0.5712890625q0,0.087890625-0.087890625,0.24169921875t-0.46142578125,0.4833984375q-0.68115234375,1.8896484375-0.8349609375,3.75732421875t-0.15380859375,3.84521484375q0,1.16455078125,0.076904296875,2.3291015625t0.252685546875,2.35107421875q0.3515625-0.50537109375,0.714111328125-1.51611328125t0.76904296875-2.208251953125t0.8349609375-2.427978515625t0.966796875-2.2412109375t1.1865234375-1.669921875t1.461181640625-0.6591796875q0.90087890625,0,1.505126953125,1.131591796875t1.12060546875,2.61474609375t0.966796875,3.01025390625t1.087646484375,2.340087890625q0.3076171875-0.3076171875,0.494384765625-0.802001953125t0.296630859375-1.065673828125t0.1318359375-1.131591796875t0.02197265625-0.955810546875q0-0.98876953125-0.296630859375-2.142333984375t-0.626220703125-2.164306640625t-0.626220703125-1.702880859375t-0.296630859375-0.802001953125q0-0.17578125,0.186767578125-0.28564453125t0.428466796875-0.17578125t0.494384765625-0.087890625t0.384521484375-0.02197265625q0.81298828125,0,1.395263671875,0.90087890625t0.9228515625,2.08740234375t0.494384765625,2.406005859375t0.15380859375,1.900634765625q0,0.85693359375-0.1318359375,1.82373046875t-0.494384765625,1.790771484375t-1.065673828125,1.373291015625t-1.77978515625,0.54931640625q-1.29638671875,0-2.13134765625-0.72509765625t-1.351318359375-1.7578125t-0.81298828125-2.252197265625t-0.560302734375-2.208251953125q-0.50537109375,1.16455078125-0.9228515625,2.9443359375t-1.0546875,3.49365234375t-1.6259765625,2.92236328125t-2.57080078125,1.20849609375t-2.252197265625-0.780029296875t-1.065673828125-2.142333984375l0.0439453125,0.0439453125q-0.263671875-0.98876953125-0.340576171875-1.9775390625t-0.076904296875-1.9775390625z M116.03796386719,47.4140625l0-0.63720703125q0-0.791015625,0.0439453125-1.494140625q0.0439453125-0.98876953125,0.0439453125-1.6259765625q0-0.3515625,0.0439453125-0.802001953125t0.2197265625-0.714111328125q0.2197265625-0.2197265625,0.516357421875-0.450439453125t0.648193359375-0.230712890625q1.12060546875,0,1.7578125,0.252685546875t0.68115234375,1.043701171875l0.087890625,0.68115234375q0.3955078125-0.94482421875,1.0546875-2.340087890625t1.527099609375-2.65869140625t1.95556640625-2.1533203125t2.296142578125-0.889892578125q1.12060546875,0,1.845703125,1.0546875t1.153564453125,2.691650390625t0.604248046875,3.6474609375t0.24169921875,3.944091796875t0.087890625,3.526611328125t0.15380859375,2.406005859375q0.087890625,0.68115234375,0.296630859375,1.439208984375t0.208740234375,1.395263671875q0,0.17578125-0.252685546875,0.340576171875t-0.538330078125,0.274658203125t-0.582275390625,0.17578125t-0.428466796875,0.06591796875q-0.85693359375,0-1.219482421875-1.285400390625t-0.450439453125-3.218994140625t-0.087890625-4.185791015625t-0.15380859375-4.185791015625t-0.626220703125-3.218994140625t-1.505126953125-1.329345703125q-0.94482421875,0-1.95556640625,1.219482421875t-1.73583984375,3.240966796875q-0.703125,2.021484375-0.966796875,4.59228515625q-0.087890625,0.81298828125-0.087890625,1.6259765625q0,1.77978515625,0.37353515625,3.5595703125q0.0439453125,0.3076171875-0.252685546875,0.46142578125t-0.736083984375,0.24169921875t-0.889892578125,0.10986328125t-0.692138671875,0.02197265625q-0.85693359375,0-1.373291015625-0.604248046875t-0.802001953125-1.549072265625t-0.384521484375-2.120361328125t-0.120849609375-2.318115234375z"/><path fill="#" d="M140.51118164063,34.572265625l0-1.052734375l0-1.080078125q0.013671875-1.09375,0.0888671875-2.0986328125t0.2119140625-1.6748046875q0.08203125-0.369140625,0.4921875-0.451171875t0.7109375-0.08203125q0.560546875,0,0.8271484375,0.13671875t0.3486328125,0.3896484375t0.068359375,0.6015625t-0.013671875,0.7998046875q0,0.642578125-0.02734375,1.791015625t-0.041015625,2.54296875l0,0.697265625q0,1.052734375,0.02734375,2.173828125q0.041015625,1.50390625,0.1572265625,2.8779296875t0.3212890625,2.474609375t0.57421875,1.6884765625q0.587890625-0.533203125,1.17578125-1.4970703125t1.12109375-2.1669921875t1.0185546875-2.5361328125t0.8818359375-2.6044921875t0.6767578125-2.392578125t0.4169921875-1.900390625q0.21875-1.12109375,0.2939453125-2.283203125t0.0751953125-2.583984375q0.423828125-0.505859375,0.65625-0.6357421875t0.73828125-0.1298828125q0.24609375,0,0.4990234375,0.041015625t0.4853515625,0.19140625l0.19140625,0.30078125l0,0.341796875q0,2.48828125-0.2392578125,5.0517578125t-0.505859375,5.154296875t-0.505859375,5.1953125t-0.2392578125,5.1748046875q0,0.396484375,0.0341796875,0.8408203125t0.1435546875,0.8408203125l-0.0546875,0.1640625q-0.19140625,0.314453125-0.62890625,0.396484375t-0.751953125,0.08203125q-0.669921875,0-1.0048828125-0.1982421875t-0.4443359375-0.546875t-0.095703125-0.806640625t0.013671875-0.9912109375q0-1.845703125,0.1640625-3.7529296875t0.396484375-3.7529296875q-0.21875,0.642578125-0.51953125,1.5517578125t-0.7041015625,1.818359375t-0.9365234375,1.66796875t-1.17578125,1.0869140625l0.02734375-0.02734375l-0.109375,0.0546875l0.02734375,0q-0.396484375,0.21875-0.7314453125,0.2939453125t-0.7861328125,0.0751953125q-0.90234375,0-1.4970703125-0.533203125t-0.9638671875-1.3740234375t-0.546875-1.88671875t-0.2529296875-2.0986328125t-0.0751953125-2.0029296875l0-1.5654296875q0-0.751953125-0.013671875-1.791015625z M145.37836914063,45.455078125q0.02734375,0,0.02734375-0.02734375l0.02734375,0q-0.02734375,0.02734375-0.0546875,0.02734375z M155.28596679688,38.072265625q0-0.560546875,0.1982421875-0.943359375t0.8408203125-0.3828125q0.24609375,0,0.615234375,0.0751953125t0.423828125,0.3759765625q0.13671875,0.806640625,0.150390625,1.75t0.095703125,1.77734375q0.314453125-0.615234375,0.806640625-1.326171875t1.12109375-1.3125t1.3671875-0.998046875t1.50390625-0.396484375q0.0546875,0,0.205078125,0.041015625t0.2802734375,0.1162109375t0.1572265625,0.1708984375t-0.150390625,0.177734375q-0.0546875,0.1640625-0.232421875,0.1982421875t-0.314453125,0.0341796875q-0.08203125,0-0.259765625-0.068359375q-1.01171875,0.533203125-1.72265625,1.44921875t-1.162109375,2.0302734375t-0.65625,2.3515625t-0.205078125,2.4130859375q0,0.587890625-0.2666015625,0.7109375t-0.8544921875,0.123046875q-0.314453125,0-0.6630859375-0.068359375t-0.4853515625-0.4375q-0.24609375-0.779296875-0.4033203125-1.791015625t-0.2392578125-2.0849609375t-0.1162109375-2.1123046875t-0.0341796875-1.873046875z M165.00215820313,37.921875q0-0.95703125,0.0888671875-2.48828125t0.2119140625-3.158203125t0.3076171875-3.0830078125t0.4033203125-2.2353515625q0.08203125-0.341796875,0.3896484375-0.41015625t0.6220703125-0.068359375q0.423828125,0,0.7314453125,0.150390625t0.3076171875,0.65625q0,2.48828125-0.3076171875,4.9833984375t-0.3349609375,4.9833984375q0.423828125-0.642578125,1.09375-0.9638671875t1.421875-0.3212890625q1.0390625,0,1.791015625,0.423828125t1.216796875,1.09375t0.6904296875,1.5517578125t0.2255859375,1.7978515625q0,0.505859375-0.1025390625,1.2646484375t-0.3076171875,1.599609375t-0.51953125,1.66796875t-0.7451171875,1.4833984375t-0.9912109375,1.0595703125t-1.23046875,0.4033203125q-0.13671875,0-0.3623046875-0.041015625t-0.451171875-0.123046875t-0.3759765625-0.2119140625t-0.150390625-0.3212890625q0-0.21875,0.2666015625-0.3076171875t0.4306640625-0.0888671875q0.615234375-0.2734375,1.09375-1.1416015625t0.7998046875-1.9072265625t0.4853515625-2.0576171875t0.1640625-1.6611328125q0-0.369140625-0.109375-0.984375t-0.3349609375-1.216796875t-0.615234375-1.0390625t-0.9228515625-0.4375q-0.642578125,0-1.025390625,0.6630859375t-0.6015625,1.544921875t-0.2939453125,1.818359375t-0.0751953125,1.4697265625q0,0.341796875,0.1162109375,0.6767578125t0.2666015625,0.669921875t0.2666015625,0.68359375t0.1162109375,0.6904296875q0,0.1640625-0.1435546875,0.2734375t-0.3349609375,0.177734375t-0.4033203125,0.0888671875t-0.3212890625,0.0205078125q-0.779296875,0-1.080078125-0.369140625t-0.51953125-1.0390625q-0.478515625-1.517578125-0.6630859375-3.0830078125t-0.1845703125-3.1376953125z M176.65975585938,41.900390625q0-0.9296875,0.2529296875-1.791015625t0.7587890625-1.5380859375t1.2646484375-1.080078125t1.7568359375-0.4033203125q0.615234375,0,1.3603515625,0.1845703125t1.4013671875,0.546875t1.09375,0.9228515625t0.4375,1.28515625q0,0.341796875-0.1162109375,0.51953125t-0.4716796875,0.177734375l-0.150390625-0.02734375q0.396484375,1.06640625,0.68359375,2.1875t0.560546875,2.2421875q0.109375,0.21875,0.1640625,0.3896484375t0.0546875,0.3349609375q0,0.21875-0.123046875,0.3623046875t-0.3212890625,0.2119140625t-0.41015625,0.095703125t-0.3759765625,0.02734375q-0.587890625,0-0.8818359375-0.205078125t-0.423828125-0.560546875t-0.1572265625-0.7998046875t-0.109375-0.8955078125q-0.1640625,0.533203125-0.4306640625,1.0390625t-0.62890625,0.9091796875t-0.8544921875,0.642578125t-1.107421875,0.2392578125q-0.90234375,0-1.517578125-0.51953125t-0.9912109375-1.2783203125t-0.546875-1.6201171875t-0.1708984375-1.599609375z M178.60116210938,41.708984375q0,0.505859375,0.068359375,1.06640625t0.2255859375,1.107421875t0.4033203125,1.0322265625t0.615234375,0.8544921875q0.669921875-0.724609375,0.9912109375-1.763671875t0.57421875-2.0029296875t0.57421875-1.654296875t0.9912109375-0.6904296875q0.423828125,0,0.7109375,0.150390625q-0.13671875-0.341796875-0.451171875-0.6630859375t-0.7041015625-0.587890625t-0.806640625-0.4375t-0.7861328125-0.1708984375q-0.109375,0-0.2529296875,0.0341796875t-0.2255859375,0.0068359375q-0.560546875,0.1640625-0.9228515625,0.5673828125t-0.587890625,0.9501953125t-0.3212890625,1.12109375t-0.095703125,1.080078125z M188.52243164063,41.96875l0-0.396484375q0-0.4921875,0.02734375-0.9296875q0.02734375-0.615234375,0.02734375-1.01171875q0-0.21875,0.02734375-0.4990234375t0.13671875-0.4443359375q0.13671875-0.13671875,0.3212890625-0.2802734375t0.4033203125-0.1435546875q0.697265625,0,1.09375,0.1572265625t0.423828125,0.6494140625l0.0546875,0.423828125q0.24609375-0.587890625,0.65625-1.4560546875t0.9501953125-1.654296875t1.216796875-1.33984375t1.4287109375-0.5537109375q0.697265625,0,1.1484375,0.65625t0.7177734375,1.6748046875t0.3759765625,2.26953125t0.150390625,2.4541015625t0.0546875,2.1943359375t0.095703125,1.4970703125q0.0546875,0.423828125,0.1845703125,0.8955078125t0.1298828125,0.8681640625q0,0.109375-0.1572265625,0.2119140625t-0.3349609375,0.1708984375t-0.3623046875,0.109375t-0.2666015625,0.041015625q-0.533203125,0-0.7587890625-0.7998046875t-0.2802734375-2.0029296875t-0.0546875-2.6044921875t-0.095703125-2.6044921875t-0.3896484375-2.0029296875t-0.9365234375-0.8271484375q-0.587890625,0-1.216796875,0.7587890625t-1.080078125,2.0166015625q-0.4375,1.2578125-0.6015625,2.857421875q-0.0546875,0.505859375-0.0546875,1.01171875q0,1.107421875,0.232421875,2.21484375q0.02734375,0.19140625-0.1572265625,0.287109375t-0.4580078125,0.150390625t-0.5537109375,0.068359375t-0.4306640625,0.013671875q-0.533203125,0-0.8544921875-0.3759765625t-0.4990234375-0.9638671875t-0.2392578125-1.3193359375t-0.0751953125-1.4423828125z M200.94565429688,41.572265625q0-1.2578125,0.2939453125-2.4677734375t0.4990234375-2.4130859375q0.0546875-0.314453125,0.4306640625-0.3896484375t0.6357421875-0.0751953125q0.451171875,0,0.724609375,0.13671875q0.109375,0.0546875,0.205078125,0.123046875t0.095703125,0.177734375q0,1.17578125-0.2802734375,2.296875t-0.2802734375,2.37890625q0,0.423828125,0.0615234375,0.7998046875t0.1162109375,0.7451171875l0.08203125,0.396484375q0,0.109375,0.013671875,0.19140625t0.041015625,0.19140625q0,0.24609375-0.3486328125,0.3349609375t-0.6083984375,0.0888671875q-0.396484375,0-0.7314453125-0.1572265625t-0.5263671875-0.5400390625l-0.19140625-0.396484375q-0.1640625-0.314453125-0.1640625-0.7041015625t-0.068359375-0.7177734375z M201.82065429688,33.341796875l0-0.259765625q0-0.642578125,0.3212890625-1.1484375t0.9638671875-0.505859375q0.08203125,0,0.1572265625,0.013671875t0.1572265625,0.013671875q0.1640625,0.02734375,0.4306640625,0.1298828125t0.2666015625,0.3212890625l0,0.02734375q-0.0546875,0.109375-0.068359375,0.2255859375t-0.068359375,0.1982421875l0.02734375-0.02734375q-0.1640625,0.423828125-0.2666015625,0.68359375t-0.2255859375,0.4169921875t-0.3076171875,0.2255859375t-0.5263671875,0.068359375q-0.0546875,0-0.19140625-0.013671875t-0.2939453125-0.0546875t-0.2666015625-0.109375t-0.109375-0.205078125z M206.91575195313,41.900390625q0-0.9296875,0.2529296875-1.791015625t0.7587890625-1.5380859375t1.2646484375-1.080078125t1.7568359375-0.4033203125q0.615234375,0,1.3603515625,0.1845703125t1.4013671875,0.546875t1.09375,0.9228515625t0.4375,1.28515625q0,0.341796875-0.1162109375,0.51953125t-0.4716796875,0.177734375l-0.150390625-0.02734375q0.396484375,1.06640625,0.68359375,2.1875t0.560546875,2.2421875q0.109375,0.21875,0.1640625,0.3896484375t0.0546875,0.3349609375q0,0.21875-0.123046875,0.3623046875t-0.3212890625,0.2119140625t-0.41015625,0.095703125t-0.3759765625,0.02734375q-0.587890625,0-0.8818359375-0.205078125t-0.423828125-0.560546875t-0.1572265625-0.7998046875t-0.109375-0.8955078125q-0.1640625,0.533203125-0.4306640625,1.0390625t-0.62890625,0.9091796875t-0.8544921875,0.642578125t-1.107421875,0.2392578125q-0.90234375,0-1.517578125-0.51953125t-0.9912109375-1.2783203125t-0.546875-1.6201171875t-0.1708984375-1.599609375z M208.85715820313,41.708984375q0,0.505859375,0.068359375,1.06640625t0.2255859375,1.107421875t0.4033203125,1.0322265625t0.615234375,0.8544921875q0.669921875-0.724609375,0.9912109375-1.763671875t0.57421875-2.0029296875t0.57421875-1.654296875t0.9912109375-0.6904296875q0.423828125,0,0.7109375,0.150390625q-0.13671875-0.341796875-0.451171875-0.6630859375t-0.7041015625-0.587890625t-0.806640625-0.4375t-0.7861328125-0.1708984375q-0.109375,0-0.2529296875,0.0341796875t-0.2255859375,0.0068359375q-0.560546875,0.1640625-0.9228515625,0.5673828125t-0.587890625,0.9501953125t-0.3212890625,1.12109375t-0.095703125,1.080078125z M223.25829101562,27.544921875q0-0.19140625,0.2666015625-0.2939453125t0.3486328125-0.1025390625l0.505859375-0.08203125q0.505859375-0.08203125,1.025390625-0.1435546875t1.01171875-0.1162109375q1.736328125-0.21875,3.47265625-0.4306640625t3.5-0.2119140625q0.13671875,0,0.3759765625,0.013671875t0.478515625,0.0751953125t0.41015625,0.1708984375t0.1708984375,0.30078125q0,0.13671875-0.1298828125,0.2392578125t-0.3076171875,0.1572265625t-0.3623046875,0.068359375t-0.2939453125,0.013671875l-0.2392578125,0t-0.2392578125-0.0546875q-0.724609375,0-1.4287109375,0.068359375t-1.4287109375,0.123046875q0.19140625,0.21875,0.205078125,0.615234375t0.02734375,0.68359375q0,4.83984375,0.068359375,9.625t0.123046875,9.666015625l0,0.02734375q-0.451171875,0.396484375-0.7724609375,0.505859375t-0.6494140625,0.109375q-0.314453125,0-0.6357421875-0.1162109375t-0.7724609375-0.4990234375l0-0.02734375l0.109375-10.732421875q0-1.06640625-0.02734375-2.3515625t-0.02734375-2.6044921875t0.041015625-2.5498046875t0.21875-2.146484375q-0.806640625,0.08203125-1.708984375,0.24609375q-0.779296875,0.13671875-1.490234375,0.13671875l-0.24609375,0q-0.0546875,0-0.3212890625,0.013671875t-0.546875-0.013671875t-0.505859375-0.109375t-0.2255859375-0.2734375z M236.77526367187,43.390625l0-1.28515625q0-0.697265625,0.0341796875-1.9755859375t0.0888671875-2.802734375t0.150390625-3.1787109375t0.21875-3.1240234375t0.2939453125-2.6318359375t0.3896484375-1.72265625q0.13671875-0.314453125,0.451171875-0.396484375t0.615234375-0.08203125q0.478515625,0,0.8408203125,0.2119140625t0.3623046875,0.7724609375l-0.24609375,0.2734375q-0.478515625,3.158203125-0.615234375,6.34375t-0.19140625,6.37109375q0.341796875-0.533203125,0.7724609375-1.0458984375t0.95703125-0.9091796875t1.134765625-0.6357421875t1.3330078125-0.2392578125q0.9296875,0,1.5380859375,0.560546875t1.0048828125,1.4560546875t0.587890625,2.0029296875t0.2939453125,2.21484375t0.1435546875,2.0986328125t0.123046875,1.6474609375q-0.259765625,0.35546875-0.765625,0.35546875l-0.041015625,0q-0.21875,0-0.478515625-0.0546875t-0.341796875-0.2734375l0.02734375,0.02734375q-0.19140625-0.423828125-0.259765625-1.2236328125t-0.109375-1.763671875t-0.1435546875-1.9755859375t-0.3076171875-1.83203125t-0.6015625-1.353515625t-1.06640625-0.560546875l-0.08203125,0q-0.806640625,0-1.353515625,0.4921875q-0.57421875,0.51953125-0.9296875,1.3671875t-0.546875,1.88671875t-0.2939453125,2.0029296875t-0.1572265625,1.75t-0.13671875,1.1552734375q-0.08203125,0.314453125-0.4853515625,0.4169921875t-0.6904296875,0.1025390625q-0.669921875,0-1.09375-0.3828125q-0.314453125-0.751953125-0.369140625-1.873046875t-0.0546875-2.1875z M249.85473632812,41.900390625q0-0.9296875,0.2529296875-1.791015625t0.7587890625-1.5380859375t1.2646484375-1.080078125t1.7568359375-0.4033203125q0.615234375,0,1.3603515625,0.1845703125t1.4013671875,0.546875t1.09375,0.9228515625t0.4375,1.28515625q0,0.341796875-0.1162109375,0.51953125t-0.4716796875,0.177734375l-0.150390625-0.02734375q0.396484375,1.06640625,0.68359375,2.1875t0.560546875,2.2421875q0.109375,0.21875,0.1640625,0.3896484375t0.0546875,0.3349609375q0,0.21875-0.123046875,0.3623046875t-0.3212890625,0.2119140625t-0.41015625,0.095703125t-0.3759765625,0.02734375q-0.587890625,0-0.8818359375-0.205078125t-0.423828125-0.560546875t-0.1572265625-0.7998046875t-0.109375-0.8955078125q-0.1640625,0.533203125-0.4306640625,1.0390625t-0.62890625,0.9091796875t-0.8544921875,0.642578125t-1.107421875,0.2392578125q-0.90234375,0-1.517578125-0.51953125t-0.9912109375-1.2783203125t-0.546875-1.6201171875t-0.1708984375-1.599609375z M251.79614257812,41.708984375q0,0.505859375,0.068359375,1.06640625t0.2255859375,1.107421875t0.4033203125,1.0322265625t0.615234375,0.8544921875q0.669921875-0.724609375,0.9912109375-1.763671875t0.57421875-2.0029296875t0.57421875-1.654296875t0.9912109375-0.6904296875q0.423828125,0,0.7109375,0.150390625q-0.13671875-0.341796875-0.451171875-0.6630859375t-0.7041015625-0.587890625t-0.806640625-0.4375t-0.7861328125-0.1708984375q-0.109375,0-0.2529296875,0.0341796875t-0.2255859375,0.0068359375q-0.560546875,0.1640625-0.9228515625,0.5673828125t-0.587890625,0.9501953125t-0.3212890625,1.12109375t-0.095703125,1.080078125z M261.71741210938,41.96875l0-0.396484375q0-0.4921875,0.02734375-0.9296875q0.02734375-0.615234375,0.02734375-1.01171875q0-0.21875,0.02734375-0.4990234375t0.13671875-0.4443359375q0.13671875-0.13671875,0.3212890625-0.2802734375t0.4033203125-0.1435546875q0.697265625,0,1.09375,0.1572265625t0.423828125,0.6494140625l0.0546875,0.423828125q0.24609375-0.587890625,0.65625-1.4560546875t0.9501953125-1.654296875t1.216796875-1.33984375t1.4287109375-0.5537109375q0.697265625,0,1.1484375,0.65625t0.7177734375,1.6748046875t0.3759765625,2.26953125t0.150390625,2.4541015625t0.0546875,2.1943359375t0.095703125,1.4970703125q0.0546875,0.423828125,0.1845703125,0.8955078125t0.1298828125,0.8681640625q0,0.109375-0.1572265625,0.2119140625t-0.3349609375,0.1708984375t-0.3623046875,0.109375t-0.2666015625,0.041015625q-0.533203125,0-0.7587890625-0.7998046875t-0.2802734375-2.0029296875t-0.0546875-2.6044921875t-0.095703125-2.6044921875t-0.3896484375-2.0029296875t-0.9365234375-0.8271484375q-0.587890625,0-1.216796875,0.7587890625t-1.080078125,2.0166015625q-0.4375,1.2578125-0.6015625,2.857421875q-0.0546875,0.505859375-0.0546875,1.01171875q0,1.107421875,0.232421875,2.21484375q0.02734375,0.19140625-0.1572265625,0.287109375t-0.4580078125,0.150390625t-0.5537109375,0.068359375t-0.4306640625,0.013671875q-0.533203125,0-0.8544921875-0.3759765625t-0.4990234375-0.9638671875t-0.2392578125-1.3193359375t-0.0751953125-1.4423828125z M274.14063476563,42.4609375q0-0.95703125,0.2119140625-2.255859375t0.7177734375-2.4609375t1.3330078125-1.9755859375t2.0849609375-0.8134765625q1.17578125,0,1.763671875,0.6767578125t0.587890625,1.8251953125q0,0.751953125-0.2802734375,1.6474609375t-0.7998046875,1.6953125t-1.23046875,1.3330078125t-1.5859375,0.533203125l-0.35546875-0.02734375q0,0.369140625,0.109375,0.9912109375t0.3212890625,1.2373046875t0.546875,1.080078125t0.8134765625,0.46484375q0.697265625,0,1.33984375-0.560546875t1.216796875-1.244140625t1.06640625-1.244140625t0.90234375-0.560546875q0.21875,0,0.451171875,0.068359375t0.259765625,0.3828125q0,0.19140625-0.1025390625,0.314453125t-0.1845703125,0.2734375q-0.423828125,0.724609375-0.9228515625,1.380859375t-1.1279296875,1.189453125t-1.3740234375,0.8408203125t-1.6474609375,0.3076171875q-1.17578125,0-1.955078125-0.4169921875t-1.2578125-1.12109375t-0.6904296875-1.626953125t-0.2119140625-1.9345703125z M276.58790039063,41.421875l0.3828125,0.341796875q0.2734375,0.24609375,0.546875,0.109375t0.4921875-0.4990234375t0.4033203125-0.8955078125t0.328125-1.09375t0.2119140625-1.09375t0.068359375-0.888671875l0-0.46484375t-0.041015625-0.4921875t-0.1435546875-0.3896484375t-0.3212890625-0.1982421875q-0.068359375-0.013671875-0.123046875-0.013671875q-0.46484375,0-0.79296875,0.587890625q-0.35546875,0.65625-0.57421875,1.5927734375t-0.314453125,1.9208984375t-0.123046875,1.4765625z M290.89333007813,39.04296875q0-1.1484375,0.0751953125-2.7001953125t0.2939453125-3.2060546875t0.669921875-3.2744140625t1.1962890625-2.912109375t1.845703125-2.0712890625t2.6728515625-0.779296875q0.109375,0,0.2939453125,0.02734375t0.3759765625,0.095703125t0.3349609375,0.1640625t0.1435546875,0.24609375q0,0.13671875-0.1982421875,0.24609375t-0.451171875,0.2255859375t-0.4853515625,0.1982421875t-0.328125,0.13671875q-0.9296875,0.533203125-1.5517578125,1.4287109375t-1.0458984375,2.0302734375t-0.642578125,2.40625t-0.3349609375,2.5361328125t-0.1298828125,2.4404296875t-0.013671875,2.091796875q0,1.28515625,0.08203125,2.6455078125t0.3349609375,2.693359375t0.7451171875,2.5771484375t1.298828125,2.310546875q0.751953125,0,1.12109375,0.4443359375t0.369140625,1.1826171875q0,0.19140625-0.1708984375,0.30078125t-0.3896484375,0.177734375t-0.4580078125,0.0888671875t-0.3486328125,0.0205078125q-0.90234375,0-1.544921875-0.546875t-1.1484375-1.216796875q-0.806640625-1.06640625-1.3125-2.26953125t-0.7998046875-2.4951171875t-0.396484375-2.6181640625t-0.1025390625-2.625z M301.62124023438,42.994140625q0-0.505859375,0.0205078125-1.4833984375t0.1435546875-1.9892578125t0.4033203125-1.83203125t0.8408203125-1.052734375q0.13671875-0.0546875,0.4443359375-0.095703125t0.615234375-0.02734375t0.546875,0.109375t0.2392578125,0.35546875q0,0.0546875-0.0546875,0.150390625t-0.287109375,0.30078125q-0.423828125,1.17578125-0.51953125,2.337890625t-0.095703125,2.392578125q0,0.724609375,0.0478515625,1.44921875t0.1572265625,1.462890625q0.21875-0.314453125,0.4443359375-0.943359375t0.478515625-1.3740234375t0.51953125-1.5107421875t0.6015625-1.39453125t0.73828125-1.0390625t0.9091796875-0.41015625q0.560546875,0,0.9365234375,0.7041015625t0.697265625,1.626953125t0.6015625,1.873046875t0.6767578125,1.4560546875q0.19140625-0.19140625,0.3076171875-0.4990234375t0.1845703125-0.6630859375t0.08203125-0.7041015625t0.013671875-0.5947265625q0-0.615234375-0.1845703125-1.3330078125t-0.3896484375-1.3466796875t-0.3896484375-1.0595703125t-0.1845703125-0.4990234375q0-0.109375,0.1162109375-0.177734375t0.2666015625-0.109375t0.3076171875-0.0546875t0.2392578125-0.013671875q0.505859375,0,0.8681640625,0.560546875t0.57421875,1.298828125t0.3076171875,1.4970703125t0.095703125,1.1826171875q0,0.533203125-0.08203125,1.134765625t-0.3076171875,1.1142578125t-0.6630859375,0.8544921875t-1.107421875,0.341796875q-0.806640625,0-1.326171875-0.451171875t-0.8408203125-1.09375t-0.505859375-1.4013671875t-0.3486328125-1.3740234375q-0.314453125,0.724609375-0.57421875,1.83203125t-0.65625,2.173828125t-1.01171875,1.818359375t-1.599609375,0.751953125t-1.4013671875-0.4853515625t-0.6630859375-1.3330078125l0.02734375,0.02734375q-0.1640625-0.615234375-0.2119140625-1.23046875t-0.0478515625-1.23046875z M315.73977539063,25.193359375q0-0.21875,0.1298828125-0.3486328125t0.328125-0.1982421875t0.41015625-0.08203125t0.3759765625-0.013671875q0.587890625,0,1.0732421875,0.3212890625t0.9091796875,0.779296875t0.7724609375,1.0048828125t0.6494140625,0.970703125q0.833984375,1.23046875,1.3603515625,2.5908203125t0.8203125,2.7958984375t0.3896484375,2.92578125t0.095703125,2.966796875q0,0.669921875-0.123046875,1.8046875t-0.3759765625,2.4541015625t-0.6357421875,2.6455078125t-0.9091796875,2.419921875t-1.216796875,1.77734375t-1.5244140625,0.68359375q-0.13671875,0-0.3896484375-0.02734375t-0.505859375-0.095703125t-0.4375-0.19140625t-0.1845703125-0.328125q0-0.314453125,0.2392578125-0.46484375t0.4853515625-0.205078125q0.615234375-1.06640625,1.134765625-2.392578125t0.8818359375-2.7548828125t0.560546875-2.84375t0.1982421875-2.6455078125q0-1.982421875-0.1982421875-3.7255859375t-0.68359375-3.3359375t-1.28515625-3.08984375t-2.0029296875-3.0419921875z"/></svg>
